<svg xmlns="http://www.w3.org/2000/svg" viewBox="0 0 123.58 123.58"><defs><style>.cls-1{fill:#80b3a3;}.cls-2{fill:#fff;}.cls-3{fill:none;}</style></defs><title>brand_for_website</title><g id="Camada_2" data-name="Camada 2"><g id="Camada_2-2" data-name="Camada 2"><rect class="cls-1" width="123.58" height="123.58"/><path class="cls-2" d="M89.5,104.93H34.08a2.4,2.4,0,0,0,0,4.8H89.5a2.4,2.4,0,0,0,0-4.8Z"/><path class="cls-2" d="M84.08,73.82H39.5a2.4,2.4,0,0,0-2.4,2.4V96.11a2.4,2.4,0,0,0,4.8,0v-16a1.48,1.48,0,0,1,3,0v4.58a1.48,1.48,0,1,0,3,0V80.1a1.48,1.48,0,0,1,3,0h0v2.51h0a1.48,1.48,0,0,0,3,0h0V80.1h0a1.48,1.48,0,0,1,3,0h0v5.48h0a1.48,1.48,0,0,0,3,0h0V80.1h0a1.48,1.48,0,0,1,3,0h0v8.45h0a1.48,1.48,0,0,0,3,0h0V80.1h0a1.48,1.48,0,0,1,1.48-1.48h5.94a1.48,1.48,0,0,1,1.49,1.48v6.68a1.48,1.48,0,1,0,3,0V80.1a1.48,1.48,0,0,1,3,0v5.48A1.49,1.49,0,0,0,81.68,87v9.07a2.4,2.4,0,0,0,4.8,0V76.22A2.4,2.4,0,0,0,84.08,73.82Z"/><path class="cls-2" d="M78.51,50.36H45.07a1.8,1.8,0,0,0-1.8,1.8V67.07a1.8,1.8,0,1,0,3.6,0v-12a1.11,1.11,0,1,1,2.23,0l0,4.82a1.11,1.11,0,1,0,2.23,0l0-4.82A1.11,1.11,0,0,1,52.44,54H56.9A1.11,1.11,0,0,1,58,55.07L58,57.67a1.11,1.11,0,1,0,2.23,0l.05-2.6A1.11,1.11,0,0,1,61.35,54h4.45a1.11,1.11,0,0,1,1.11,1.11v3.77a1.11,1.11,0,0,0,2.23,0V55.07a1.11,1.11,0,1,1,2.23,0l0,1.15a1.11,1.11,0,1,0,2.23,0l0-1.15A1.11,1.11,0,0,1,74.72,54h.88a1.11,1.11,0,0,1,1.11,1.11v12a1.8,1.8,0,1,0,3.6,0V52.16A1.8,1.8,0,0,0,78.51,50.36Z"/><path class="cls-2" d="M72.34,33.07H51.25a1.8,1.8,0,0,0-1.8,1.8v8.74a1.8,1.8,0,0,0,3.6,0V37.79a1.11,1.11,0,0,1,2.23,0l0,1.46a1.11,1.11,0,0,0,2.23,0l0-1.46a1.11,1.11,0,0,1,2.23,0l0,3.83a1.11,1.11,0,1,0,2.23,0l0-3.83a1.11,1.11,0,0,1,2.23,0v2.51a1.11,1.11,0,1,0,2.23,0V37.79a1.11,1.11,0,0,1,1.11-1.11h1.9a1.11,1.11,0,0,1,1.11,1.11v5.83a1.8,1.8,0,0,0,3.6,0V34.87A1.8,1.8,0,0,0,72.34,33.07Z"/><path class="cls-3" d="M65.79,28.39a2.44,2.44,0,0,1-.4.16q-.17,0-.19,0s-.18-.05-.48,0a13,13,0,0,1-2.17,0,17.77,17.77,0,0,1-2.38-.27,4.22,4.22,0,0,1-1-.32l-.5-.22,0,.39a1.14,1.14,0,0,0,.6,1,6.64,6.64,0,0,0,3.3.53,11.38,11.38,0,0,0,2.94-.43,2.3,2.3,0,0,0,.67-.27,1,1,0,0,0,.17-.56l.06-.37-.27.18A2.37,2.37,0,0,1,65.79,28.39Z"/><path class="cls-2" d="M71.12,17.22a4.71,4.71,0,0,0-1.55-1.55,4,4,0,0,0-2-.74A1.74,1.74,0,0,0,67,15q-.15.07-.55-.24a4.1,4.1,0,0,0-1.7-.76,6,6,0,0,0-2.06-.08,7,7,0,0,0-1.71.46,3.15,3.15,0,0,0-1,.66,1.22,1.22,0,0,0-.31.81l-.19,0a5,5,0,0,0-2.06.06,4,4,0,0,0-2.76,2.48,2.91,2.91,0,0,0-.13.86,2.67,2.67,0,0,0,.06.87,1.65,1.65,0,0,0,.58.91,2.66,2.66,0,0,0,1.59.63l.29,0a2.78,2.78,0,0,0,.14.48,27.73,27.73,0,0,1,.77,3.56A8.17,8.17,0,0,0,58.19,27a.66.66,0,0,1,0,.14s0,.09,0,.14,0,.26,0,.43a2.22,2.22,0,0,0,.15,1.05,1.65,1.65,0,0,0,.74.61,6.58,6.58,0,0,0,2.44.48,12.28,12.28,0,0,0,3.12-.25,10.4,10.4,0,0,0,1.07-.25l.18,0,.11,0h.06a0,0,0,0,1,0,0,.13.13,0,0,0,.09.13q.19.06.45-.36a4,4,0,0,0,.2-.74c0-.12,0-.23.06-.32a1.05,1.05,0,0,0,0-.4c0-.07.05-.2.19-.38l0-.05a4.41,4.41,0,0,0,.68-1.29,16.19,16.19,0,0,0,.51-2.22q.23-1.3.34-1.8a3.3,3.3,0,0,0,.14-.7.33.33,0,0,1,.18-.31,6.92,6.92,0,0,0,.62-.34A4.1,4.1,0,0,0,70.5,20a2.6,2.6,0,0,0,.58-.63,2.6,2.6,0,0,0,.21-1A2.1,2.1,0,0,0,71.12,17.22ZM66.41,28.33a1,1,0,0,1-.17.56,2.3,2.3,0,0,1-.67.27,11.38,11.38,0,0,1-2.94.43,6.64,6.64,0,0,1-3.3-.53,1.14,1.14,0,0,1-.6-1l0-.39.5.22a4.22,4.22,0,0,0,1,.32,17.77,17.77,0,0,0,2.38.27,13,13,0,0,0,2.17,0q.46,0,.48,0s.08,0,.19,0a2.44,2.44,0,0,0,.4-.16,2.37,2.37,0,0,0,.41-.25l.27-.18Zm4.35-9.48a1.83,1.83,0,0,1-.54.93,7.9,7.9,0,0,1-1.53,1,8.59,8.59,0,0,0-1.21.73c-.08.06-.12.1-.13.13s.15,0,.56-.19a2.18,2.18,0,0,1,.55-.23s0,.19-.15.52-.23,1-.42,2a13.78,13.78,0,0,1-.66,2.61,4.08,4.08,0,0,1-1.06,1.39q-.57.56-.72.56T65.4,28a6.54,6.54,0,0,1,.73-1.73,3.36,3.36,0,0,0,.41-.92q-.14-.32-.64.52-1.17,1.93-.94,2.34a.15.15,0,0,1,0,.06s-.22.07-.66.08c-.26,0-.59,0-1,0h0a6,6,0,0,0,.13-.6,8.49,8.49,0,0,1,.82-2.38l.23-.48a1.71,1.71,0,0,0,.11-.29c0-.08,0-.13,0-.15a.15.15,0,0,0-.11,0q-.15,0-.53.66A8,8,0,0,0,63,27.58a2.58,2.58,0,0,0-.06.7v0l-.82-.07-1.49-.13v-.35a14.8,14.8,0,0,0-.08-2.27.17.17,0,0,0-.14-.14.29.29,0,0,0-.24.06,2.91,2.91,0,0,0-.06,1.27,3.39,3.39,0,0,0,.2,1.3s0,0-.12,0a3,3,0,0,1-1.05-.42,3.74,3.74,0,0,1-.81-2.18,17.2,17.2,0,0,0-.75-3.28,1,1,0,0,0-.18-.35,1.64,1.64,0,0,0-.26-.27q-.12-.09-.17,0h0l-.24,0a2.5,2.5,0,0,1-1.65-1.2,1.88,1.88,0,0,1-.19-.91,2.74,2.74,0,0,1,.18-1.05,3.48,3.48,0,0,1,2-2.06,2.53,2.53,0,0,1,.54-.2,5.07,5.07,0,0,1,.7-.05,4.47,4.47,0,0,1,1.23.12,7.21,7.21,0,0,1,2.41,1.21,2.23,2.23,0,0,0,.67.41q.1,0,0-.19-.13-.41-1.19-1a7,7,0,0,0-1.49-.62.46.46,0,0,0,0-.14,2.17,2.17,0,0,1,1.18-1.23,5.64,5.64,0,0,1,2.1-.43,4.22,4.22,0,0,1,2.33.51A3.65,3.65,0,0,1,67,16.39a1.36,1.36,0,0,0,.32.49q.12.06.14,0a.68.68,0,0,0,0-.25,1.91,1.91,0,0,0-.38-1.2q-.16-.21-.11-.27s.15-.06.37-.06a3.34,3.34,0,0,1,1.74.69,4.2,4.2,0,0,1,1.45,1.38,2.1,2.1,0,0,1,.24.8A2.14,2.14,0,0,1,70.76,18.86Z"/></g></g></svg>