<svg xmlns="http://www.w3.org/2000/svg" viewBox="0 0 60.22 95.89"><defs><style>.cls-1{fill:#d8562e;}.cls-2{fill:none;}.cls-3{fill:#2b2324;}.cls-4,.cls-5,.cls-6{fill:#fff;}.cls-4{opacity:0.5;}.cls-5{opacity:0.3;}.cls-6{opacity:0.4;}</style></defs><title>marca</title><g id="Camada_2" data-name="Camada 2"><g id="Camada_1-2" data-name="Camada 1"><path class="cls-1" d="M57.82,91.08H2.4a2.4,2.4,0,0,0,0,4.8H57.82a2.4,2.4,0,0,0,0-4.8Z"/><path class="cls-1" d="M52.4,60H7.82a2.4,2.4,0,0,0-2.4,2.4V82.26a2.4,2.4,0,0,0,4.8,0v-16a1.48,1.48,0,0,1,3,0v4.58a1.48,1.48,0,1,0,3,0V66.26a1.48,1.48,0,0,1,3,0h0v2.51h0a1.48,1.48,0,0,0,3,0h0V66.26h0a1.48,1.48,0,0,1,3,0h0v5.48h0a1.48,1.48,0,0,0,3,0h0V66.26h0a1.48,1.48,0,0,1,3,0h0v8.45h0a1.48,1.48,0,0,0,3,0h0V66.26h0a1.48,1.48,0,0,1,1.48-1.48H41.4a1.48,1.48,0,0,1,1.49,1.48v6.68a1.48,1.48,0,1,0,3,0V66.26a1.48,1.48,0,0,1,3,0v5.48A1.49,1.49,0,0,0,50,73.19v9.07a2.4,2.4,0,0,0,4.8,0V62.37A2.4,2.4,0,0,0,52.4,60Z"/><path class="cls-1" d="M46.83,36.51H13.39a1.8,1.8,0,0,0-1.8,1.8V53.23a1.8,1.8,0,1,0,3.6,0v-12a1.11,1.11,0,1,1,2.23,0l0,4.82a1.11,1.11,0,0,0,2.23,0l0-4.82a1.11,1.11,0,0,1,1.11-1.11h4.45a1.11,1.11,0,0,1,1.11,1.11l-.05,2.6a1.11,1.11,0,1,0,2.23,0l.05-2.6a1.11,1.11,0,0,1,1.11-1.11h4.45a1.11,1.11,0,0,1,1.11,1.11V45a1.11,1.11,0,0,0,2.23,0V41.22a1.11,1.11,0,1,1,2.23,0l0,1.15a1.11,1.11,0,1,0,2.23,0l0-1.15A1.11,1.11,0,0,1,43,40.11h.88A1.11,1.11,0,0,1,45,41.22v12a1.8,1.8,0,1,0,3.6,0V38.31A1.8,1.8,0,0,0,46.83,36.51Z"/><path class="cls-1" d="M40.66,19.22H19.57a1.8,1.8,0,0,0-1.8,1.8v8.74a1.8,1.8,0,0,0,3.6,0V23.94a1.11,1.11,0,0,1,2.23,0l0,1.46a1.11,1.11,0,0,0,2.23,0l0-1.46a1.11,1.11,0,0,1,2.23,0l0,3.83a1.11,1.11,0,1,0,2.23,0l0-3.83a1.11,1.11,0,0,1,2.23,0v2.51a1.11,1.11,0,1,0,2.23,0V23.94a1.11,1.11,0,0,1,1.11-1.11h1.9a1.11,1.11,0,0,1,1.11,1.11v5.83a1.8,1.8,0,0,0,3.6,0V21A1.8,1.8,0,0,0,40.66,19.22Z"/><path class="cls-2" d="M34.11,14.54a2.44,2.44,0,0,1-.4.16q-.17,0-.19,0s-.18-.05-.48,0a13,13,0,0,1-2.17,0,17.77,17.77,0,0,1-2.38-.27,4.22,4.22,0,0,1-1-.32l-.5-.22,0,.39a1.14,1.14,0,0,0,.6,1,6.64,6.64,0,0,0,3.3.53,11.38,11.38,0,0,0,2.94-.43,2.3,2.3,0,0,0,.67-.27,1,1,0,0,0,.17-.56l.06-.37-.27.18A2.37,2.37,0,0,1,34.11,14.54Z"/><path class="cls-3" d="M39.44,3.38a4.71,4.71,0,0,0-1.55-1.55,4,4,0,0,0-2-.74,1.74,1.74,0,0,0-.63.06q-.15.07-.55-.24a4.1,4.1,0,0,0-1.7-.76A6,6,0,0,0,31,.05a7,7,0,0,0-1.71.46,3.15,3.15,0,0,0-1,.66A1.22,1.22,0,0,0,28,2l-.19,0A5,5,0,0,0,25.71,2a4,4,0,0,0-2.76,2.48,2.91,2.91,0,0,0-.13.86,2.67,2.67,0,0,0,.06.87,1.65,1.65,0,0,0,.58.91A2.66,2.66,0,0,0,25,7.73l.29,0a2.78,2.78,0,0,0,.14.48,27.73,27.73,0,0,1,.77,3.56,8.17,8.17,0,0,0,.27,1.35.66.66,0,0,1,0,.14s0,.09,0,.14,0,.26,0,.43a2.22,2.22,0,0,0,.15,1.05,1.65,1.65,0,0,0,.74.61A6.58,6.58,0,0,0,29.9,16,12.28,12.28,0,0,0,33,15.72a10.4,10.4,0,0,0,1.07-.25l.18,0,.11,0h.06a0,0,0,0,1,0,0,.13.13,0,0,0,.09.13q.19.06.45-.36a4,4,0,0,0,.2-.74c0-.12,0-.23.06-.32a1.05,1.05,0,0,0,0-.4c0-.07.05-.2.19-.38l0-.05A4.41,4.41,0,0,0,36.2,12a16.19,16.19,0,0,0,.51-2.22q.23-1.3.34-1.8a3.3,3.3,0,0,0,.14-.7A.33.33,0,0,1,37.37,7,6.92,6.92,0,0,0,38,6.66a4.1,4.1,0,0,0,.83-.55,2.6,2.6,0,0,0,.58-.63,2.6,2.6,0,0,0,.21-1A2.1,2.1,0,0,0,39.44,3.38ZM34.73,14.48a1,1,0,0,1-.17.56,2.3,2.3,0,0,1-.67.27,11.38,11.38,0,0,1-2.94.43,6.64,6.64,0,0,1-3.3-.53,1.14,1.14,0,0,1-.6-1l0-.39.5.22a4.22,4.22,0,0,0,1,.32,17.77,17.77,0,0,0,2.38.27,13,13,0,0,0,2.17,0q.46,0,.48,0s.08,0,.19,0a2.44,2.44,0,0,0,.4-.16,2.37,2.37,0,0,0,.41-.25l.27-.18ZM39.08,5a1.83,1.83,0,0,1-.54.93A7.9,7.9,0,0,1,37,6.9a8.59,8.59,0,0,0-1.21.73c-.08.06-.12.1-.13.13s.15,0,.56-.19a2.18,2.18,0,0,1,.55-.23s0,.19-.15.52-.23,1-.42,2a13.78,13.78,0,0,1-.66,2.61,4.08,4.08,0,0,1-1.06,1.39q-.57.56-.72.56t-.06-.26a6.54,6.54,0,0,1,.73-1.73,3.36,3.36,0,0,0,.41-.92q-.14-.32-.64.52Q33,14,33.28,14.37a.15.15,0,0,1,0,.06s-.22.07-.66.08c-.26,0-.59,0-1,0h0a6,6,0,0,0,.13-.6,8.49,8.49,0,0,1,.82-2.38l.23-.48a1.71,1.71,0,0,0,.11-.29c0-.08,0-.13,0-.15a.15.15,0,0,0-.11,0q-.15,0-.53.66a8,8,0,0,0-.95,2.51,2.58,2.58,0,0,0-.06.7v0l-.82-.07L29,14.28v-.35a14.8,14.8,0,0,0-.08-2.27.17.17,0,0,0-.14-.14.29.29,0,0,0-.24.06,2.91,2.91,0,0,0-.06,1.27,3.39,3.39,0,0,0,.2,1.3s0,0-.12,0a3,3,0,0,1-1.05-.42,3.74,3.74,0,0,1-.81-2.18A17.2,17.2,0,0,0,26,8.27a1,1,0,0,0-.18-.35,1.64,1.64,0,0,0-.26-.27q-.12-.09-.17,0h0l-.24,0a2.5,2.5,0,0,1-1.65-1.2,1.88,1.88,0,0,1-.19-.91,2.74,2.74,0,0,1,.18-1.05,3.48,3.48,0,0,1,2-2.06,2.53,2.53,0,0,1,.54-.2,5.07,5.07,0,0,1,.7-.05,4.47,4.47,0,0,1,1.23.12,7.21,7.21,0,0,1,2.41,1.21,2.23,2.23,0,0,0,.67.41q.1,0,0-.19-.13-.41-1.19-1A7,7,0,0,0,28.25,2a.46.46,0,0,0,0-.14A2.17,2.17,0,0,1,29.47.68a5.64,5.64,0,0,1,2.1-.43A4.22,4.22,0,0,1,33.9.76a3.65,3.65,0,0,1,1.42,1.78,1.36,1.36,0,0,0,.32.49q.12.06.14,0a.68.68,0,0,0,0-.25,1.91,1.91,0,0,0-.38-1.2q-.16-.21-.11-.27s.15-.06.37-.06A3.34,3.34,0,0,1,37.44,2a4.2,4.2,0,0,1,1.45,1.38,2.1,2.1,0,0,1,.24.8A2.14,2.14,0,0,1,39.08,5Z"/><path class="cls-4" d="M6.15,76.22v5.85a2,2,0,0,0,1,1.75A1.54,1.54,0,0,0,8,84c1.14-.09,1.58-1.49,1-2.58-.44-.79-1.69-3.55-2.36-5.3A.23.23,0,0,0,6.15,76.22Z"/><path class="cls-5" d="M50.71,76.22v5.85a2,2,0,0,0,1,1.75,1.54,1.54,0,0,0,.86.2c1.14-.09,1.58-1.49,1-2.58-.44-.79-1.69-3.55-2.36-5.3A.23.23,0,0,0,50.71,76.22Z"/><path class="cls-4" d="M13.94,68v2.66a.9.9,0,0,0,.44.8.7.7,0,0,0,.39.09c.52,0,.72-.68.44-1.17S14.44,68.8,14.14,68A.1.1,0,0,0,13.94,68Z"/><path class="cls-5" d="M19.63,66V68.7a.9.9,0,0,0,.44.8.7.7,0,0,0,.39.09c.52,0,.72-.68.44-1.17s-.77-1.62-1.07-2.41A.1.1,0,0,0,19.63,66Z"/><path class="cls-5" d="M25.61,68.95v2.66a.9.9,0,0,0,.44.8.7.7,0,0,0,.39.09c.52,0,.72-.68.44-1.17s-.77-1.62-1.07-2.41A.1.1,0,0,0,25.61,68.95Z"/><path class="cls-5" d="M31.61,72v2.66a.9.9,0,0,0,.44.8.7.7,0,0,0,.39.09c.52,0,.72-.68.44-1.17s-.77-1.62-1.07-2.41A.1.1,0,0,0,31.61,72Z"/><path class="cls-4" d="M43.43,70.19v2.66a.9.9,0,0,0,.44.8.7.7,0,0,0,.39.09c.52,0,.72-.68.44-1.17s-.77-1.62-1.07-2.41A.1.1,0,0,0,43.43,70.19Z"/><path class="cls-6" d="M12.22,48.94v4a1.35,1.35,0,0,0,.67,1.2,1.05,1.05,0,0,0,.59.13c.78-.06,1.08-1,.66-1.77-.3-.54-1.16-2.44-1.62-3.64A.16.16,0,0,0,12.22,48.94Z"/><path class="cls-4" d="M18.39,25.55v4a1.35,1.35,0,0,0,.67,1.2,1.05,1.05,0,0,0,.59.13c.78-.06,1.08-1,.66-1.77-.3-.54-1.16-2.44-1.62-3.64A.16.16,0,0,0,18.39,25.55Z"/><path class="cls-6" d="M39.54,25.55v4a1.35,1.35,0,0,0,.67,1.2,1.05,1.05,0,0,0,.59.13c.78-.06,1.08-1,.66-1.77-.3-.54-1.16-2.44-1.62-3.64A.16.16,0,0,0,39.54,25.55Z"/><path class="cls-4" d="M46,50.61v2.66a.9.9,0,0,0,.44.8.7.7,0,0,0,.39.09c.52,0,.72-.68.44-1.17s-.77-1.62-1.07-2.41A.1.1,0,0,0,46,50.61Z"/><path class="cls-4" d="M17.91,44.07v1.83a.62.62,0,0,0,.3.55.48.48,0,0,0,.27.06c.36,0,.49-.46.3-.81S18.26,44.58,18,44A.07.07,0,0,0,17.91,44.07Z"/><path class="cls-4" d="M24.21,23.46v1.83a.62.62,0,0,0,.3.55.48.48,0,0,0,.27.06c.36,0,.49-.46.3-.81s-.53-1.11-.74-1.65A.07.07,0,0,0,24.21,23.46Z"/><path class="cls-6" d="M28.59,26V27.8a.62.62,0,0,0,.3.55.48.48,0,0,0,.27.06c.36,0,.49-.46.3-.81s-.53-1.11-.74-1.65A.07.07,0,0,0,28.59,26Z"/><path class="cls-6" d="M33.1,24.48v1.83a.62.62,0,0,0,.3.55.48.48,0,0,0,.27.06c.36,0,.49-.46.3-.81s-.53-1.11-.74-1.65A.07.07,0,0,0,33.1,24.48Z"/><path class="cls-6" d="M26.84,41.88V43.7a.62.62,0,0,0,.3.55.48.48,0,0,0,.27.06c.36,0,.49-.46.3-.81s-.53-1.11-.74-1.65A.07.07,0,0,0,26.84,41.88Z"/><path class="cls-6" d="M35.77,43.13V45a.62.62,0,0,0,.3.55.48.48,0,0,0,.27.06c.36,0,.49-.46.3-.81s-.53-1.11-.74-1.65A.07.07,0,0,0,35.77,43.13Z"/><path class="cls-6" d="M40.19,40.82v1.53a.52.52,0,0,0,.26.46.4.4,0,0,0,.23.05c.3,0,.41-.39.25-.68s-.44-.93-.62-1.39A.06.06,0,0,0,40.19,40.82Z"/><path class="cls-5" d="M9.52,60.75s-3.94-.64-3.37,3.56S9.52,60.75,9.52,60.75Z"/><path class="cls-5" d="M15.19,37.26a2.31,2.31,0,0,0-2.76,2.91C12.9,43.6,15.19,37.26,15.19,37.26Z"/><path class="cls-5" d="M20.7,20.21a1.73,1.73,0,0,0-2.07,2.18C19,25,20.7,20.21,20.7,20.21Z"/></g></g></svg>